<mxfile host="app.diagrams.net" agent="Mozilla/5.0 (Macintosh; Intel Mac OS X 10_15_7) AppleWebKit/537.36 (KHTML, like Gecko) Chrome/132.0.0.0 Safari/537.36" version="26.0.11">
  <diagram id="C5RBs43oDa-KdzZeNtuy" name="Page-1">
    <mxGraphModel dx="1122" dy="724" grid="1" gridSize="10" guides="1" tooltips="1" connect="1" arrows="1" fold="1" page="1" pageScale="1" pageWidth="827" pageHeight="1169" math="0" shadow="0">
      <root>
        <mxCell id="WIyWlLk6GJQsqaUBKTNV-0" />
        <mxCell id="WIyWlLk6GJQsqaUBKTNV-1" parent="WIyWlLk6GJQsqaUBKTNV-0" />
        <mxCell id="Hk6aXKgqM1rwUAdcVz1X-2" value="Do I have time&lt;div&gt;to surf?&lt;/div&gt;" style="rhombus;whiteSpace=wrap;html=1;" vertex="1" parent="WIyWlLk6GJQsqaUBKTNV-1">
          <mxGeometry x="347.5" y="150" width="145" height="80" as="geometry" />
        </mxCell>
        <mxCell id="Hk6aXKgqM1rwUAdcVz1X-6" value="" style="endArrow=classic;html=1;rounded=0;entryX=0.5;entryY=0;entryDx=0;entryDy=0;exitX=0.5;exitY=1;exitDx=0;exitDy=0;" edge="1" parent="WIyWlLk6GJQsqaUBKTNV-1" source="Hk6aXKgqM1rwUAdcVz1X-2" target="Hk6aXKgqM1rwUAdcVz1X-12">
          <mxGeometry width="50" height="50" relative="1" as="geometry">
            <mxPoint x="420" y="230" as="sourcePoint" />
            <mxPoint x="480" y="260" as="targetPoint" />
            <Array as="points">
              <mxPoint x="1035" y="230" />
            </Array>
          </mxGeometry>
        </mxCell>
        <mxCell id="Hk6aXKgqM1rwUAdcVz1X-7" value="" style="endArrow=classic;html=1;rounded=0;entryX=0.5;entryY=0;entryDx=0;entryDy=0;" edge="1" parent="WIyWlLk6GJQsqaUBKTNV-1" target="Hk6aXKgqM1rwUAdcVz1X-14">
          <mxGeometry width="50" height="50" relative="1" as="geometry">
            <mxPoint x="420" y="230" as="sourcePoint" />
            <mxPoint x="360" y="260" as="targetPoint" />
          </mxGeometry>
        </mxCell>
        <mxCell id="Hk6aXKgqM1rwUAdcVz1X-9" value="No" style="text;html=1;align=center;verticalAlign=middle;whiteSpace=wrap;rounded=0;" vertex="1" parent="WIyWlLk6GJQsqaUBKTNV-1">
          <mxGeometry x="510" y="210" width="60" height="30" as="geometry" />
        </mxCell>
        <mxCell id="Hk6aXKgqM1rwUAdcVz1X-10" value="Yes" style="text;html=1;align=center;verticalAlign=middle;whiteSpace=wrap;rounded=0;" vertex="1" parent="WIyWlLk6GJQsqaUBKTNV-1">
          <mxGeometry x="354" y="220" width="60" height="30" as="geometry" />
        </mxCell>
        <mxCell id="Hk6aXKgqM1rwUAdcVz1X-11" value="&lt;b&gt;&lt;font style=&quot;font-size: 14px;&quot;&gt;Will I go surfing today?&lt;/font&gt;&lt;/b&gt;" style="text;html=1;align=center;verticalAlign=middle;whiteSpace=wrap;rounded=0;" vertex="1" parent="WIyWlLk6GJQsqaUBKTNV-1">
          <mxGeometry x="340" y="120" width="160" height="30" as="geometry" />
        </mxCell>
        <mxCell id="Hk6aXKgqM1rwUAdcVz1X-12" value="Sadly, no surf&lt;div&gt;for me today :(&lt;/div&gt;" style="rounded=1;whiteSpace=wrap;html=1;" vertex="1" parent="WIyWlLk6GJQsqaUBKTNV-1">
          <mxGeometry x="980" y="580" width="110" height="50" as="geometry" />
        </mxCell>
        <mxCell id="Hk6aXKgqM1rwUAdcVz1X-14" value="Is it windy?" style="rhombus;whiteSpace=wrap;html=1;" vertex="1" parent="WIyWlLk6GJQsqaUBKTNV-1">
          <mxGeometry x="320" y="260" width="80" height="60" as="geometry" />
        </mxCell>
        <mxCell id="Hk6aXKgqM1rwUAdcVz1X-16" value="" style="endArrow=classic;html=1;rounded=0;entryX=0.5;entryY=0;entryDx=0;entryDy=0;" edge="1" parent="WIyWlLk6GJQsqaUBKTNV-1" target="Hk6aXKgqM1rwUAdcVz1X-20">
          <mxGeometry width="50" height="50" relative="1" as="geometry">
            <mxPoint x="360" y="320" as="sourcePoint" />
            <mxPoint x="330" y="350" as="targetPoint" />
          </mxGeometry>
        </mxCell>
        <mxCell id="Hk6aXKgqM1rwUAdcVz1X-17" value="Yes" style="text;html=1;align=center;verticalAlign=middle;whiteSpace=wrap;rounded=0;" vertex="1" parent="WIyWlLk6GJQsqaUBKTNV-1">
          <mxGeometry x="294" y="310" width="60" height="30" as="geometry" />
        </mxCell>
        <mxCell id="Hk6aXKgqM1rwUAdcVz1X-19" value="No" style="text;html=1;align=center;verticalAlign=middle;whiteSpace=wrap;rounded=0;" vertex="1" parent="WIyWlLk6GJQsqaUBKTNV-1">
          <mxGeometry x="410" y="290" width="60" height="30" as="geometry" />
        </mxCell>
        <mxCell id="Hk6aXKgqM1rwUAdcVz1X-20" value="What is the&amp;nbsp;&lt;div&gt;direction&amp;nbsp;&lt;div&gt;of the wind?&lt;/div&gt;&lt;/div&gt;" style="rhombus;whiteSpace=wrap;html=1;" vertex="1" parent="WIyWlLk6GJQsqaUBKTNV-1">
          <mxGeometry x="230" y="350" width="130" height="90" as="geometry" />
        </mxCell>
        <mxCell id="Hk6aXKgqM1rwUAdcVz1X-24" value="" style="endArrow=classic;html=1;rounded=0;exitX=0.5;exitY=1;exitDx=0;exitDy=0;entryX=0.5;entryY=0;entryDx=0;entryDy=0;" edge="1" parent="WIyWlLk6GJQsqaUBKTNV-1" source="Hk6aXKgqM1rwUAdcVz1X-20" target="Hk6aXKgqM1rwUAdcVz1X-29">
          <mxGeometry width="50" height="50" relative="1" as="geometry">
            <mxPoint x="260" y="450" as="sourcePoint" />
            <mxPoint x="250" y="480" as="targetPoint" />
          </mxGeometry>
        </mxCell>
        <mxCell id="Hk6aXKgqM1rwUAdcVz1X-25" value="" style="endArrow=classic;html=1;rounded=0;exitX=0.5;exitY=1;exitDx=0;exitDy=0;entryX=0.173;entryY=0.689;entryDx=0;entryDy=0;entryPerimeter=0;" edge="1" parent="WIyWlLk6GJQsqaUBKTNV-1" source="Hk6aXKgqM1rwUAdcVz1X-20" target="Hk6aXKgqM1rwUAdcVz1X-40">
          <mxGeometry width="50" height="50" relative="1" as="geometry">
            <mxPoint x="310" y="490" as="sourcePoint" />
            <mxPoint x="410" y="390" as="targetPoint" />
            <Array as="points">
              <mxPoint x="360" y="440" />
            </Array>
          </mxGeometry>
        </mxCell>
        <mxCell id="Hk6aXKgqM1rwUAdcVz1X-26" value="Off-shore" style="text;html=1;align=center;verticalAlign=middle;whiteSpace=wrap;rounded=0;" vertex="1" parent="WIyWlLk6GJQsqaUBKTNV-1">
          <mxGeometry x="300" y="440" width="60" height="30" as="geometry" />
        </mxCell>
        <mxCell id="Hk6aXKgqM1rwUAdcVz1X-28" value="On-shore" style="text;html=1;align=center;verticalAlign=middle;whiteSpace=wrap;rounded=0;" vertex="1" parent="WIyWlLk6GJQsqaUBKTNV-1">
          <mxGeometry x="215" y="440" width="60" height="30" as="geometry" />
        </mxCell>
        <mxCell id="Hk6aXKgqM1rwUAdcVz1X-29" value="Is the wind&lt;div&gt;&amp;gt;10kn?&lt;/div&gt;" style="rhombus;whiteSpace=wrap;html=1;" vertex="1" parent="WIyWlLk6GJQsqaUBKTNV-1">
          <mxGeometry x="200" y="480" width="90" height="80" as="geometry" />
        </mxCell>
        <mxCell id="Hk6aXKgqM1rwUAdcVz1X-31" value="" style="endArrow=classic;html=1;rounded=0;exitX=0.5;exitY=1;exitDx=0;exitDy=0;entryX=0.5;entryY=0;entryDx=0;entryDy=0;" edge="1" parent="WIyWlLk6GJQsqaUBKTNV-1" source="Hk6aXKgqM1rwUAdcVz1X-29" target="Hk6aXKgqM1rwUAdcVz1X-34">
          <mxGeometry width="50" height="50" relative="1" as="geometry">
            <mxPoint x="240" y="560" as="sourcePoint" />
            <mxPoint x="210" y="590" as="targetPoint" />
          </mxGeometry>
        </mxCell>
        <mxCell id="Hk6aXKgqM1rwUAdcVz1X-33" value="" style="endArrow=classic;html=1;rounded=0;exitX=0.5;exitY=1;exitDx=0;exitDy=0;entryX=0;entryY=1;entryDx=0;entryDy=0;" edge="1" parent="WIyWlLk6GJQsqaUBKTNV-1" source="Hk6aXKgqM1rwUAdcVz1X-29" target="Hk6aXKgqM1rwUAdcVz1X-40">
          <mxGeometry width="50" height="50" relative="1" as="geometry">
            <mxPoint x="382.98" y="547.99" as="sourcePoint" />
            <mxPoint x="440" y="430" as="targetPoint" />
            <Array as="points">
              <mxPoint x="300" y="560" />
            </Array>
          </mxGeometry>
        </mxCell>
        <mxCell id="Hk6aXKgqM1rwUAdcVz1X-34" value="Am I&amp;nbsp;&lt;div&gt;desperate&lt;div&gt;to get wet?&lt;/div&gt;&lt;/div&gt;" style="rhombus;whiteSpace=wrap;html=1;" vertex="1" parent="WIyWlLk6GJQsqaUBKTNV-1">
          <mxGeometry x="150" y="584.5" width="110" height="85.5" as="geometry" />
        </mxCell>
        <mxCell id="Hk6aXKgqM1rwUAdcVz1X-35" value="" style="endArrow=classic;html=1;rounded=0;exitX=0.5;exitY=1;exitDx=0;exitDy=0;entryX=0.5;entryY=1;entryDx=0;entryDy=0;" edge="1" parent="WIyWlLk6GJQsqaUBKTNV-1" source="Hk6aXKgqM1rwUAdcVz1X-34" target="Hk6aXKgqM1rwUAdcVz1X-12">
          <mxGeometry width="50" height="50" relative="1" as="geometry">
            <mxPoint x="210" y="670" as="sourcePoint" />
            <mxPoint x="750" y="740" as="targetPoint" />
            <Array as="points">
              <mxPoint x="140" y="670" />
              <mxPoint x="140" y="700" />
              <mxPoint x="550" y="700" />
              <mxPoint x="1035" y="700" />
            </Array>
          </mxGeometry>
        </mxCell>
        <mxCell id="Hk6aXKgqM1rwUAdcVz1X-36" value="" style="endArrow=classic;html=1;rounded=0;exitX=0.5;exitY=1;exitDx=0;exitDy=0;entryX=0.327;entryY=0.844;entryDx=0;entryDy=0;entryPerimeter=0;" edge="1" parent="WIyWlLk6GJQsqaUBKTNV-1" source="Hk6aXKgqM1rwUAdcVz1X-34" target="Hk6aXKgqM1rwUAdcVz1X-40">
          <mxGeometry width="50" height="50" relative="1" as="geometry">
            <mxPoint x="235" y="690" as="sourcePoint" />
            <mxPoint x="360" y="660" as="targetPoint" />
            <Array as="points">
              <mxPoint x="260" y="670" />
            </Array>
          </mxGeometry>
        </mxCell>
        <mxCell id="Hk6aXKgqM1rwUAdcVz1X-37" value="No" style="text;html=1;align=center;verticalAlign=middle;whiteSpace=wrap;rounded=0;" vertex="1" parent="WIyWlLk6GJQsqaUBKTNV-1">
          <mxGeometry x="130" y="650" width="60" height="30" as="geometry" />
        </mxCell>
        <mxCell id="Hk6aXKgqM1rwUAdcVz1X-40" value="What&lt;div&gt;direction is&lt;/div&gt;&lt;div&gt;the swell?&lt;/div&gt;" style="rhombus;whiteSpace=wrap;html=1;" vertex="1" parent="WIyWlLk6GJQsqaUBKTNV-1">
          <mxGeometry x="480" y="240" width="110" height="90" as="geometry" />
        </mxCell>
        <mxCell id="Hk6aXKgqM1rwUAdcVz1X-41" value="" style="endArrow=classic;html=1;rounded=0;exitX=0.5;exitY=1;exitDx=0;exitDy=0;entryX=0;entryY=0.5;entryDx=0;entryDy=0;" edge="1" parent="WIyWlLk6GJQsqaUBKTNV-1" source="Hk6aXKgqM1rwUAdcVz1X-14" target="Hk6aXKgqM1rwUAdcVz1X-40">
          <mxGeometry width="50" height="50" relative="1" as="geometry">
            <mxPoint x="370" y="370" as="sourcePoint" />
            <mxPoint x="420" y="320" as="targetPoint" />
          </mxGeometry>
        </mxCell>
        <mxCell id="Hk6aXKgqM1rwUAdcVz1X-42" value="Yes" style="text;html=1;align=center;verticalAlign=middle;whiteSpace=wrap;rounded=0;" vertex="1" parent="WIyWlLk6GJQsqaUBKTNV-1">
          <mxGeometry x="180" y="550" width="60" height="30" as="geometry" />
        </mxCell>
        <mxCell id="Hk6aXKgqM1rwUAdcVz1X-43" value="No" style="text;html=1;align=center;verticalAlign=middle;whiteSpace=wrap;rounded=0;" vertex="1" parent="WIyWlLk6GJQsqaUBKTNV-1">
          <mxGeometry x="250" y="540" width="60" height="30" as="geometry" />
        </mxCell>
        <mxCell id="Hk6aXKgqM1rwUAdcVz1X-44" value="Yes" style="text;html=1;align=center;verticalAlign=middle;whiteSpace=wrap;rounded=0;" vertex="1" parent="WIyWlLk6GJQsqaUBKTNV-1">
          <mxGeometry x="210" y="650" width="60" height="30" as="geometry" />
        </mxCell>
        <mxCell id="Hk6aXKgqM1rwUAdcVz1X-47" value="" style="endArrow=classic;html=1;rounded=0;exitX=0.5;exitY=1;exitDx=0;exitDy=0;entryX=0.5;entryY=0;entryDx=0;entryDy=0;" edge="1" parent="WIyWlLk6GJQsqaUBKTNV-1" source="Hk6aXKgqM1rwUAdcVz1X-40" target="Hk6aXKgqM1rwUAdcVz1X-52">
          <mxGeometry width="50" height="50" relative="1" as="geometry">
            <mxPoint x="510" y="350" as="sourcePoint" />
            <mxPoint x="620" y="370" as="targetPoint" />
            <Array as="points">
              <mxPoint x="600" y="330" />
            </Array>
          </mxGeometry>
        </mxCell>
        <mxCell id="Hk6aXKgqM1rwUAdcVz1X-48" value="" style="endArrow=classic;html=1;rounded=0;exitX=0.5;exitY=1;exitDx=0;exitDy=0;entryX=0.5;entryY=0;entryDx=0;entryDy=0;" edge="1" parent="WIyWlLk6GJQsqaUBKTNV-1" source="Hk6aXKgqM1rwUAdcVz1X-40" target="Hk6aXKgqM1rwUAdcVz1X-51">
          <mxGeometry width="50" height="50" relative="1" as="geometry">
            <mxPoint x="440" y="480" as="sourcePoint" />
            <mxPoint x="500" y="400" as="targetPoint" />
            <Array as="points">
              <mxPoint x="510" y="350" />
            </Array>
          </mxGeometry>
        </mxCell>
        <mxCell id="Hk6aXKgqM1rwUAdcVz1X-49" value="S/SW" style="text;html=1;align=center;verticalAlign=middle;whiteSpace=wrap;rounded=0;" vertex="1" parent="WIyWlLk6GJQsqaUBKTNV-1">
          <mxGeometry x="500" y="340" width="60" height="30" as="geometry" />
        </mxCell>
        <mxCell id="Hk6aXKgqM1rwUAdcVz1X-50" value="N/NW" style="text;html=1;align=center;verticalAlign=middle;whiteSpace=wrap;rounded=0;" vertex="1" parent="WIyWlLk6GJQsqaUBKTNV-1">
          <mxGeometry x="550" y="310" width="60" height="30" as="geometry" />
        </mxCell>
        <mxCell id="Hk6aXKgqM1rwUAdcVz1X-51" value="Is the&lt;div&gt;tide high&lt;/div&gt;&lt;div&gt;or low?&lt;/div&gt;" style="rhombus;whiteSpace=wrap;html=1;" vertex="1" parent="WIyWlLk6GJQsqaUBKTNV-1">
          <mxGeometry x="450" y="380" width="80" height="80" as="geometry" />
        </mxCell>
        <mxCell id="Hk6aXKgqM1rwUAdcVz1X-52" value="Is the&lt;div&gt;tide high&lt;/div&gt;&lt;div&gt;or low?&lt;/div&gt;" style="rhombus;whiteSpace=wrap;html=1;" vertex="1" parent="WIyWlLk6GJQsqaUBKTNV-1">
          <mxGeometry x="760" y="240" width="80" height="80" as="geometry" />
        </mxCell>
        <mxCell id="Hk6aXKgqM1rwUAdcVz1X-53" value="" style="endArrow=classic;html=1;rounded=0;exitX=0.5;exitY=1;exitDx=0;exitDy=0;entryX=0.5;entryY=0;entryDx=0;entryDy=0;" edge="1" parent="WIyWlLk6GJQsqaUBKTNV-1" source="Hk6aXKgqM1rwUAdcVz1X-51" target="Hk6aXKgqM1rwUAdcVz1X-55">
          <mxGeometry width="50" height="50" relative="1" as="geometry">
            <mxPoint x="490" y="460" as="sourcePoint" />
            <mxPoint x="440" y="500" as="targetPoint" />
            <Array as="points">
              <mxPoint x="480" y="480" />
            </Array>
          </mxGeometry>
        </mxCell>
        <mxCell id="Hk6aXKgqM1rwUAdcVz1X-54" value="" style="endArrow=classic;html=1;rounded=0;exitX=0.5;exitY=1;exitDx=0;exitDy=0;entryX=0.5;entryY=0;entryDx=0;entryDy=0;" edge="1" parent="WIyWlLk6GJQsqaUBKTNV-1" source="Hk6aXKgqM1rwUAdcVz1X-51" target="Hk6aXKgqM1rwUAdcVz1X-57">
          <mxGeometry width="50" height="50" relative="1" as="geometry">
            <mxPoint x="540" y="480" as="sourcePoint" />
            <mxPoint x="540" y="480" as="targetPoint" />
            <Array as="points">
              <mxPoint x="500" y="480" />
            </Array>
          </mxGeometry>
        </mxCell>
        <mxCell id="Hk6aXKgqM1rwUAdcVz1X-55" value="Am I in&lt;div&gt;the mood to&lt;/div&gt;&lt;div&gt;deal with&lt;/div&gt;&lt;div&gt;a crowd?&lt;/div&gt;" style="rhombus;whiteSpace=wrap;html=1;" vertex="1" parent="WIyWlLk6GJQsqaUBKTNV-1">
          <mxGeometry x="370" y="480" width="110" height="100" as="geometry" />
        </mxCell>
        <mxCell id="Hk6aXKgqM1rwUAdcVz1X-57" value="Am I in&lt;div&gt;the mood to&lt;/div&gt;&lt;div&gt;deal with&lt;/div&gt;&lt;div&gt;a crowd?&lt;/div&gt;" style="rhombus;whiteSpace=wrap;html=1;" vertex="1" parent="WIyWlLk6GJQsqaUBKTNV-1">
          <mxGeometry x="485" y="480" width="110" height="100" as="geometry" />
        </mxCell>
        <mxCell id="Hk6aXKgqM1rwUAdcVz1X-58" value="High" style="text;html=1;align=center;verticalAlign=middle;whiteSpace=wrap;rounded=0;" vertex="1" parent="WIyWlLk6GJQsqaUBKTNV-1">
          <mxGeometry x="425" y="460" width="60" height="30" as="geometry" />
        </mxCell>
        <mxCell id="Hk6aXKgqM1rwUAdcVz1X-59" value="Low" style="text;html=1;align=center;verticalAlign=middle;whiteSpace=wrap;rounded=0;" vertex="1" parent="WIyWlLk6GJQsqaUBKTNV-1">
          <mxGeometry x="485" y="460" width="60" height="30" as="geometry" />
        </mxCell>
        <mxCell id="Hk6aXKgqM1rwUAdcVz1X-60" value="" style="endArrow=classic;html=1;rounded=0;exitX=0.5;exitY=1;exitDx=0;exitDy=0;entryX=0.5;entryY=0;entryDx=0;entryDy=0;" edge="1" parent="WIyWlLk6GJQsqaUBKTNV-1" source="Hk6aXKgqM1rwUAdcVz1X-55" target="Hk6aXKgqM1rwUAdcVz1X-62">
          <mxGeometry width="50" height="50" relative="1" as="geometry">
            <mxPoint x="425" y="580" as="sourcePoint" />
            <mxPoint x="375" y="610" as="targetPoint" />
          </mxGeometry>
        </mxCell>
        <mxCell id="Hk6aXKgqM1rwUAdcVz1X-61" value="" style="endArrow=classic;html=1;rounded=0;exitX=0.5;exitY=1;exitDx=0;exitDy=0;entryX=0.5;entryY=0;entryDx=0;entryDy=0;" edge="1" parent="WIyWlLk6GJQsqaUBKTNV-1" source="Hk6aXKgqM1rwUAdcVz1X-55" target="Hk6aXKgqM1rwUAdcVz1X-63">
          <mxGeometry width="50" height="50" relative="1" as="geometry">
            <mxPoint x="492.5" y="590" as="sourcePoint" />
            <mxPoint x="470" y="610" as="targetPoint" />
          </mxGeometry>
        </mxCell>
        <mxCell id="Hk6aXKgqM1rwUAdcVz1X-62" value="Go surfing at&lt;div&gt;6th&amp;nbsp;&lt;span style=&quot;background-color: transparent; color: light-dark(rgb(0, 0, 0), rgb(255, 255, 255));&quot;&gt;st&lt;/span&gt;&lt;/div&gt;" style="rounded=1;whiteSpace=wrap;html=1;" vertex="1" parent="WIyWlLk6GJQsqaUBKTNV-1">
          <mxGeometry x="300" y="620" width="85" height="40" as="geometry" />
        </mxCell>
        <mxCell id="Hk6aXKgqM1rwUAdcVz1X-63" value="Go surfing at&lt;div&gt;Killers&lt;/div&gt;" style="rounded=1;whiteSpace=wrap;html=1;" vertex="1" parent="WIyWlLk6GJQsqaUBKTNV-1">
          <mxGeometry x="390" y="620" width="85" height="40" as="geometry" />
        </mxCell>
        <mxCell id="Hk6aXKgqM1rwUAdcVz1X-65" value="Go surfing at&lt;div&gt;DP&#39;s&lt;/div&gt;" style="rounded=1;whiteSpace=wrap;html=1;" vertex="1" parent="WIyWlLk6GJQsqaUBKTNV-1">
          <mxGeometry x="480" y="620" width="85" height="40" as="geometry" />
        </mxCell>
        <mxCell id="Hk6aXKgqM1rwUAdcVz1X-66" value="Go surfing at&lt;div&gt;Cayucos Pier&lt;/div&gt;" style="rounded=1;whiteSpace=wrap;html=1;" vertex="1" parent="WIyWlLk6GJQsqaUBKTNV-1">
          <mxGeometry x="570" y="620" width="85" height="40" as="geometry" />
        </mxCell>
        <mxCell id="Hk6aXKgqM1rwUAdcVz1X-67" value="" style="endArrow=classic;html=1;rounded=0;exitX=0.5;exitY=1;exitDx=0;exitDy=0;entryX=0.5;entryY=0;entryDx=0;entryDy=0;" edge="1" parent="WIyWlLk6GJQsqaUBKTNV-1" source="Hk6aXKgqM1rwUAdcVz1X-57" target="Hk6aXKgqM1rwUAdcVz1X-65">
          <mxGeometry width="50" height="50" relative="1" as="geometry">
            <mxPoint x="540" y="610" as="sourcePoint" />
            <mxPoint x="590" y="560" as="targetPoint" />
          </mxGeometry>
        </mxCell>
        <mxCell id="Hk6aXKgqM1rwUAdcVz1X-68" value="" style="endArrow=classic;html=1;rounded=0;exitX=0.5;exitY=1;exitDx=0;exitDy=0;entryX=0.5;entryY=0;entryDx=0;entryDy=0;" edge="1" parent="WIyWlLk6GJQsqaUBKTNV-1" source="Hk6aXKgqM1rwUAdcVz1X-57" target="Hk6aXKgqM1rwUAdcVz1X-66">
          <mxGeometry width="50" height="50" relative="1" as="geometry">
            <mxPoint x="642" y="565" as="sourcePoint" />
            <mxPoint x="560" y="605" as="targetPoint" />
          </mxGeometry>
        </mxCell>
        <mxCell id="Hk6aXKgqM1rwUAdcVz1X-94" value="Am I in&lt;div&gt;the mood to&lt;/div&gt;&lt;div&gt;deal with&lt;/div&gt;&lt;div&gt;a crowd?&lt;/div&gt;" style="rhombus;whiteSpace=wrap;html=1;" vertex="1" parent="WIyWlLk6GJQsqaUBKTNV-1">
          <mxGeometry x="680" y="340" width="110" height="100" as="geometry" />
        </mxCell>
        <mxCell id="Hk6aXKgqM1rwUAdcVz1X-95" value="Am I in&lt;div&gt;the mood to&lt;/div&gt;&lt;div&gt;deal with&lt;/div&gt;&lt;div&gt;a crowd?&lt;/div&gt;" style="rhombus;whiteSpace=wrap;html=1;" vertex="1" parent="WIyWlLk6GJQsqaUBKTNV-1">
          <mxGeometry x="795" y="340" width="110" height="100" as="geometry" />
        </mxCell>
        <mxCell id="Hk6aXKgqM1rwUAdcVz1X-96" value="High" style="text;html=1;align=center;verticalAlign=middle;whiteSpace=wrap;rounded=0;" vertex="1" parent="WIyWlLk6GJQsqaUBKTNV-1">
          <mxGeometry x="735" y="320" width="60" height="30" as="geometry" />
        </mxCell>
        <mxCell id="Hk6aXKgqM1rwUAdcVz1X-97" value="Low" style="text;html=1;align=center;verticalAlign=middle;whiteSpace=wrap;rounded=0;" vertex="1" parent="WIyWlLk6GJQsqaUBKTNV-1">
          <mxGeometry x="795" y="320" width="60" height="30" as="geometry" />
        </mxCell>
        <mxCell id="Hk6aXKgqM1rwUAdcVz1X-98" value="" style="endArrow=classic;html=1;rounded=0;exitX=0.5;exitY=1;exitDx=0;exitDy=0;entryX=0.5;entryY=0;entryDx=0;entryDy=0;" edge="1" parent="WIyWlLk6GJQsqaUBKTNV-1" source="Hk6aXKgqM1rwUAdcVz1X-94" target="Hk6aXKgqM1rwUAdcVz1X-100">
          <mxGeometry width="50" height="50" relative="1" as="geometry">
            <mxPoint x="735" y="440" as="sourcePoint" />
            <mxPoint x="685" y="470" as="targetPoint" />
          </mxGeometry>
        </mxCell>
        <mxCell id="Hk6aXKgqM1rwUAdcVz1X-99" value="" style="endArrow=classic;html=1;rounded=0;exitX=0.5;exitY=1;exitDx=0;exitDy=0;entryX=0.5;entryY=0;entryDx=0;entryDy=0;" edge="1" parent="WIyWlLk6GJQsqaUBKTNV-1" source="Hk6aXKgqM1rwUAdcVz1X-94" target="Hk6aXKgqM1rwUAdcVz1X-101">
          <mxGeometry width="50" height="50" relative="1" as="geometry">
            <mxPoint x="802.5" y="450" as="sourcePoint" />
            <mxPoint x="780" y="470" as="targetPoint" />
          </mxGeometry>
        </mxCell>
        <mxCell id="Hk6aXKgqM1rwUAdcVz1X-100" value="Go surfing at&lt;div&gt;Sandspit&lt;/div&gt;" style="rounded=1;whiteSpace=wrap;html=1;" vertex="1" parent="WIyWlLk6GJQsqaUBKTNV-1">
          <mxGeometry x="610" y="480" width="85" height="40" as="geometry" />
        </mxCell>
        <mxCell id="Hk6aXKgqM1rwUAdcVz1X-101" value="Go surfing at&lt;div&gt;the Canyon&lt;/div&gt;" style="rounded=1;whiteSpace=wrap;html=1;" vertex="1" parent="WIyWlLk6GJQsqaUBKTNV-1">
          <mxGeometry x="700" y="480" width="85" height="40" as="geometry" />
        </mxCell>
        <mxCell id="Hk6aXKgqM1rwUAdcVz1X-102" value="Go surfing at&lt;div&gt;DP&#39;s&lt;/div&gt;" style="rounded=1;whiteSpace=wrap;html=1;" vertex="1" parent="WIyWlLk6GJQsqaUBKTNV-1">
          <mxGeometry x="790" y="480" width="85" height="40" as="geometry" />
        </mxCell>
        <mxCell id="Hk6aXKgqM1rwUAdcVz1X-103" value="Go surfing at&lt;div&gt;the Rock&lt;/div&gt;" style="rounded=1;whiteSpace=wrap;html=1;" vertex="1" parent="WIyWlLk6GJQsqaUBKTNV-1">
          <mxGeometry x="880" y="480" width="85" height="40" as="geometry" />
        </mxCell>
        <mxCell id="Hk6aXKgqM1rwUAdcVz1X-104" value="" style="endArrow=classic;html=1;rounded=0;exitX=0.5;exitY=1;exitDx=0;exitDy=0;entryX=0.5;entryY=0;entryDx=0;entryDy=0;" edge="1" parent="WIyWlLk6GJQsqaUBKTNV-1" source="Hk6aXKgqM1rwUAdcVz1X-95" target="Hk6aXKgqM1rwUAdcVz1X-102">
          <mxGeometry width="50" height="50" relative="1" as="geometry">
            <mxPoint x="850" y="470" as="sourcePoint" />
            <mxPoint x="900" y="420" as="targetPoint" />
          </mxGeometry>
        </mxCell>
        <mxCell id="Hk6aXKgqM1rwUAdcVz1X-105" value="" style="endArrow=classic;html=1;rounded=0;exitX=0.5;exitY=1;exitDx=0;exitDy=0;entryX=0.5;entryY=0;entryDx=0;entryDy=0;" edge="1" parent="WIyWlLk6GJQsqaUBKTNV-1" source="Hk6aXKgqM1rwUAdcVz1X-95" target="Hk6aXKgqM1rwUAdcVz1X-103">
          <mxGeometry width="50" height="50" relative="1" as="geometry">
            <mxPoint x="952" y="425" as="sourcePoint" />
            <mxPoint x="870" y="465" as="targetPoint" />
          </mxGeometry>
        </mxCell>
        <mxCell id="Hk6aXKgqM1rwUAdcVz1X-106" value="" style="endArrow=classic;html=1;rounded=0;entryX=0.5;entryY=0;entryDx=0;entryDy=0;exitX=0.5;exitY=1;exitDx=0;exitDy=0;" edge="1" parent="WIyWlLk6GJQsqaUBKTNV-1" source="Hk6aXKgqM1rwUAdcVz1X-52" target="Hk6aXKgqM1rwUAdcVz1X-94">
          <mxGeometry width="50" height="50" relative="1" as="geometry">
            <mxPoint x="805" y="320" as="sourcePoint" />
            <mxPoint x="790" y="340" as="targetPoint" />
            <Array as="points">
              <mxPoint x="790" y="340" />
            </Array>
          </mxGeometry>
        </mxCell>
        <mxCell id="Hk6aXKgqM1rwUAdcVz1X-107" value="" style="endArrow=classic;html=1;rounded=0;exitX=0.5;exitY=1;exitDx=0;exitDy=0;" edge="1" parent="WIyWlLk6GJQsqaUBKTNV-1" source="Hk6aXKgqM1rwUAdcVz1X-52">
          <mxGeometry width="50" height="50" relative="1" as="geometry">
            <mxPoint x="800" y="320" as="sourcePoint" />
            <mxPoint x="850" y="340" as="targetPoint" />
            <Array as="points">
              <mxPoint x="810" y="340" />
            </Array>
          </mxGeometry>
        </mxCell>
        <mxCell id="Hk6aXKgqM1rwUAdcVz1X-108" value="No" style="text;html=1;align=center;verticalAlign=middle;whiteSpace=wrap;rounded=0;" vertex="1" parent="WIyWlLk6GJQsqaUBKTNV-1">
          <mxGeometry x="655" y="440" width="60" height="30" as="geometry" />
        </mxCell>
        <mxCell id="Hk6aXKgqM1rwUAdcVz1X-109" value="No" style="text;html=1;align=center;verticalAlign=middle;whiteSpace=wrap;rounded=0;" vertex="1" parent="WIyWlLk6GJQsqaUBKTNV-1">
          <mxGeometry x="802.5" y="440" width="60" height="30" as="geometry" />
        </mxCell>
        <mxCell id="Hk6aXKgqM1rwUAdcVz1X-110" value="No" style="text;html=1;align=center;verticalAlign=middle;whiteSpace=wrap;rounded=0;" vertex="1" parent="WIyWlLk6GJQsqaUBKTNV-1">
          <mxGeometry x="490" y="580" width="60" height="30" as="geometry" />
        </mxCell>
        <mxCell id="Hk6aXKgqM1rwUAdcVz1X-111" value="No" style="text;html=1;align=center;verticalAlign=middle;whiteSpace=wrap;rounded=0;" vertex="1" parent="WIyWlLk6GJQsqaUBKTNV-1">
          <mxGeometry x="347.5" y="580" width="60" height="30" as="geometry" />
        </mxCell>
        <mxCell id="Hk6aXKgqM1rwUAdcVz1X-112" value="Yes" style="text;html=1;align=center;verticalAlign=middle;whiteSpace=wrap;rounded=0;" vertex="1" parent="WIyWlLk6GJQsqaUBKTNV-1">
          <mxGeometry x="725" y="440" width="60" height="30" as="geometry" />
        </mxCell>
        <mxCell id="Hk6aXKgqM1rwUAdcVz1X-113" value="Yes" style="text;html=1;align=center;verticalAlign=middle;whiteSpace=wrap;rounded=0;" vertex="1" parent="WIyWlLk6GJQsqaUBKTNV-1">
          <mxGeometry x="862.5" y="440" width="60" height="30" as="geometry" />
        </mxCell>
        <mxCell id="Hk6aXKgqM1rwUAdcVz1X-114" value="Yes" style="text;html=1;align=center;verticalAlign=middle;whiteSpace=wrap;rounded=0;" vertex="1" parent="WIyWlLk6GJQsqaUBKTNV-1">
          <mxGeometry x="560" y="580" width="60" height="30" as="geometry" />
        </mxCell>
        <mxCell id="Hk6aXKgqM1rwUAdcVz1X-115" value="Yes" style="text;html=1;align=center;verticalAlign=middle;whiteSpace=wrap;rounded=0;" vertex="1" parent="WIyWlLk6GJQsqaUBKTNV-1">
          <mxGeometry x="410" y="580" width="60" height="30" as="geometry" />
        </mxCell>
      </root>
    </mxGraphModel>
  </diagram>
</mxfile>
